<svg xmlns="http://www.w3.org/2000/svg" viewBox="0 0 525 451" width="200px"><path d="M147.5 299.3c-4.6 8.1-8.7 15.5-12.8 22.9-20.7 37-41.5 74-62.1 111.1-1.9 3.5-4.1 4.9-8.1 4.8-14.7-.3-29.3-.1-44-.1-1.6 0-3.2-.2-5.7-.3 82.5-142.5 164.6-284.4 247-426.8 1.2 1.8 2.2 3.1 3 4.5 25.9 44.4 51.7 88.9 77.7 133.3 2 3.4 2.1 5.9 0 9.4-53.6 92-107.2 184.1-160.6 276.3-2.4 4.1-4.9 5.7-9.7 5.6-13.8-.4-27.7-.1-41.5-.1-1.6 0-3.2-.1-5.4-.2 1.2-2.2 2-4 3-5.7 15.9-28.1 31.7-56.3 47.7-84.3 1.8-3.2 1.7-5.4-.3-8.5-8.4-12.4-16.6-25-24.8-37.5-1-1.2-1.9-2.4-3.4-4.4zm113-198.6c-1 1.5-1.6 2.3-2.1 3.1-27.1 48-54.1 96-81.3 143.9-1.6 2.8-.8 4.5.6 6.7l25.2 39.6c.7 1.2 1.7 2.2 2.8 3.6.9-1.2 1.6-2 2-2.8 27-47.2 54-94.5 80.9-141.8.9-1.5.6-4.5-.3-6.2-8.3-14.3-16.8-28.4-25.3-42.5-.6-1-1.4-2-2.5-3.6z" fill="#000"></path><path d="M202.5 438.8c17.8-31.2 35.4-61.9 53.4-93.4 1.3 1.9 2.3 3.3 3.1 4.8 7.7 12.5 15.2 25 23 37.4.9 1.4 2.5 3.2 3.9 3.2 13.1.2 26.2.1 40.1.1-1.2-2.3-2-3.9-2.9-5.4-14.1-25.3-28.2-50.5-42.4-75.8-1.4-2.5-2.2-4.4-.5-7.3 24.7-42.1 49.2-84.2 73.8-126.3.5-.8 1.1-1.5 2-2.8 51.5 88.9 102.8 177.3 154.5 266.6h-24.8c-9.3 0-18.7-.2-28 .1-3.7.1-5.6-1.3-7.4-4.4-30.6-53.6-61.4-107.1-92.1-160.6-.8-1.4-1.7-2.8-3-4.9-5.2 8.3-9.6 16.4-15.1 23.9-4.2 5.8-3.9 10.3-.5 16.4 22.7 40.9 44.9 82 67.3 123.1.9 1.6 1.6 3.2 2.7 5.3H202.5z" fill="#000"></path></svg>